<?xml version="1.0" ?><svg enable-background="new 0 0 504 504" id="Layer_1" version="1.1" viewBox="0 0 504 504" xml:space="preserve" xmlns="http://www.w3.org/2000/svg" xmlns:xlink="http://www.w3.org/1999/xlink"><path d="M454.6,256.6c-9.2,58.5-27.1,75.6-58.8,114.9c-31.7,33.3-77.3,88.9-141.9,85.8  c-58.5-9.2-75.6-27.1-114.9-58.8c-33.3-31.7-88.9-77.3-85.8-141.9c9.2-58.5,27.1-75.6,58.8-114.9c31.7-33.3,77.3-88.9,141.9-85.8  c58.5,9.2,75.6,27.1,114.9,58.8C402.1,146.4,457.7,192,454.6,256.6z" fill="#3765AF"/><path d="M323.8,142.1c0-11.2-9-20.3-20.3-20.3h-99.9c-11.2,0-20.3,9-20.3,20.3v233.5c0,11.2,9,20.3,20.3,20.3h99.8  c11.2,0,20.3-9,20.3-20.3L323.8,142.1L323.8,142.1z M267.7,145.1c0,1.8-1.5,3.2-3.2,3.2H243c-1.8,0-3.2-1.5-3.2-3.2v-0.2  c0-1.8,1.5-3.2,3.2-3.2h21.6c1.8,0,3.2,1.5,3.2,3.2V145.1z M253.3,384.5c-7.2,0-13.2-6-13.2-13.2s6-13.2,13.2-13.2  c7.2,0,13.2,6,13.2,13.2S260.6,384.5,253.3,384.5z M313.9,347.9H193.5V168h120.5V347.9z" fill="#FFFFFF"/></svg>