<?xml version="1.0" encoding="UTF-8"?>
<!DOCTYPE svg PUBLIC "-//W3C//DTD SVG 1.1//EN" "http://www.w3.org/Graphics/SVG/1.1/DTD/svg11.dtd">
<!-- Creator: CorelDRAW -->
<svg xmlns="http://www.w3.org/2000/svg" xml:space="preserve" width="6.82666in" height="6.82666in" style="shape-rendering:geometricPrecision; text-rendering:geometricPrecision; image-rendering:optimizeQuality; fill-rule:evenodd; clip-rule:evenodd"
viewBox="0 0 6.82666 6.82666"
 xmlns:xlink="http://www.w3.org/1999/xlink">
 <defs>
  <style type="text/css">
   <![CDATA[
    .fil1 {fill:#FEFEFE;fill-rule:nonzero}
    .fil0 {fill:url(#id0)}
   ]]>
  </style>
  <linearGradient id="id0" gradientUnits="userSpaceOnUse" x1="1.68784" y1="0.424697" x2="5.13882" y2="6.40196">
   <stop offset="0" style="stop-color:#444FF5"/>
   <stop offset="0.490196" style="stop-color:#21BFDB"/>
   <stop offset="1" style="stop-color:#1DABB6"/>
  </linearGradient>
 </defs>
 <g id="Layer_x0020_1">
  <metadata id="CorelCorpID_0Corel-Layer"/>
  <path class="fil0" d="M6.36936 1.70667c0.942567,1.63257 0.383209,3.72013 -1.24937,4.6627 -1.63257,0.942567 -3.72013,0.383209 -4.6627,-1.24937 -0.942567,-1.63257 -0.383209,-3.72013 1.24937,-4.6627 1.63257,-0.942567 3.72013,-0.383209 4.6627,1.24937z"/>
  <g id="_431989960">
   <path id="_431990752" class="fil1" d="M3.41333 1.08c0.295827,0 0.566614,0.071815 0.801594,0.196039 0.281689,0.148913 0.511362,0.373157 0.670563,0.639256 0.159252,0.266189 0.24811,0.574126 0.24811,0.890335 0,0.266 -0.0627874,0.538051 -0.199303,0.79628l-0.0643701 -0.0338976 0.0644606 0.0340787c-0.00236614,0.00447638 -0.00512992,0.00860236 -0.00822835,0.0123583l-1.42278 2.10001 0.00026378 0.000177165c-0.0225866,0.0333425 -0.0679291,0.0420551 -0.101268,0.0194685 -0.00890551,-0.0060315 -0.0160512,-0.013685 -0.021315,-0.0223031l-1.48378 -2.10181 -0.000110236 7.87402e-005c-0.00288976,-0.00409449 -0.00529528,-0.00838583 -0.00723622,-0.0128071 -0.134819,-0.256843 -0.19687,-0.52722 -0.19687,-0.791626 0,-0.316213 0.0888504,-0.624146 0.24811,-0.890335 0.159201,-0.266098 0.38887,-0.490343 0.670563,-0.63926 0.23498,-0.124224 0.505768,-0.196039 0.801594,-0.196039zm0.733799 0.324783c-0.214496,-0.113398 -0.462331,-0.178949 -0.733799,-0.178949 -0.271469,0 -0.519303,0.0655512 -0.733799,0.178949 -0.257657,0.136213 -0.467823,0.341476 -0.613602,0.585142 -0.145728,0.243571 -0.227031,0.525689 -0.227031,0.815709 0,0.242016 0.0567165,0.489366 0.179957,0.724177l1.42329 2.01614 1.36463 -2.01416c0.123961,-0.235398 0.180992,-0.483465 0.180992,-0.726161 0,-0.29002 -0.0813071,-0.572138 -0.227031,-0.815709 -0.14578,-0.243665 -0.355945,-0.448929 -0.613602,-0.585138z"/>
   <g>
    <path id="_431989792" class="fil1" d="M3.42331 1.59252c0.292953,0 0.558185,0.118748 0.750169,0.310736 0.191988,0.191988 0.31074,0.45722 0.31074,0.750177 0,0.292953 -0.118752,0.558181 -0.31074,0.750169 -0.191984,0.191988 -0.457217,0.31074 -0.750169,0.31074 -0.292957,0 -0.558185,-0.118752 -0.750173,-0.31074 -0.191988,-0.191988 -0.310736,-0.457217 -0.310736,-0.750169 0,-0.292957 0.118748,-0.558189 0.310736,-0.750177 0.191988,-0.191988 0.457217,-0.310736 0.750173,-0.310736zm0.647063 0.413846c-0.165594,-0.165591 -0.39437,-0.268016 -0.647063,-0.268016 -0.252697,0 -0.481472,0.102425 -0.647063,0.268016 -0.165591,0.165591 -0.268016,0.39437 -0.268016,0.647067 0,0.252693 0.102425,0.481469 0.268016,0.647059 0.165591,0.165591 0.394366,0.268016 0.647063,0.268016 0.252693,0 0.481469,-0.102425 0.647063,-0.268016 0.165591,-0.165591 0.268012,-0.394366 0.268012,-0.647059 0,-0.252697 -0.102421,-0.481476 -0.268012,-0.647067z"/>
    <path id="_431990464" class="fil1" d="M3.49428 1.75949l0.177984 0.551374 0.58513 -0.00112598 0 -0.000283465c0.0402677,-7.48031e-005 0.0729803,0.0325079 0.0730551,0.0727756 4.72441e-005,0.025811 -0.013315,0.0485079 -0.0335197,0.0615118l-0.470728 0.340622 0.181862 0.556071 0.000129921 -4.33071e-005c0.0125157,0.0382717 -0.00836614,0.0794488 -0.0466378,0.0919685 -0.0255433,0.00835039 -0.052378,0.00182283 -0.071122,-0.014815l-0.467118 -0.340752 -0.472803 0.344902 0.00019685 0.000267717c-0.0325315,0.0237323 -0.0781457,0.0165984 -0.101878,-0.015937 -0.0153031,-0.0209764 -0.0177638,-0.0473937 -0.0088622,-0.069878l0.180457 -0.551783 -0.474016 -0.343004 -5.90551e-005 8.26772e-005c-0.032622,-0.0236024 -0.0399331,-0.0691929 -0.0163268,-0.101815 0.0156339,-0.0216063 0.0409134,-0.0321024 0.0656811,-0.029874l0.578661 0.00111024 0.179736 -0.556803 0.0692126 0.0222165 -0.0693898 -0.0223976c0.0123701,-0.0383189 0.0534685,-0.0593583 0.0917874,-0.0469921 0.0251575,0.00812205 0.0428661,0.0286299 0.0485669,0.0526024zm0.125075 0.62411l-0.0692126 0.0222165 -0.126827 -0.392909 -0.125047 0.387382c-0.00755512,0.0322795 -0.036563,0.0562913 -0.0711339,0.0562244l0 -0.000283465 -0.412858 -0.000791339 0.331114 0.239598c0.027378,0.0174685 0.0405866,0.0518268 0.0300276,0.0841181l-0.000129921 -4.33071e-005 -0.128398 0.392594 0.327933 -0.23922c0.0250827,-0.022374 0.0632087,-0.0250512 0.0914606,-0.00444094l-0.00019685 0.000271654 0.333654 0.24339 -0.126961 -0.388185c-0.0121181,-0.030311 -0.00265354,-0.0660984 0.0249921,-0.0861024l5.90551e-005 8.26772e-005 0.334524 -0.242063 -0.406346 0.000779528c-0.0332402,0.0030748 -0.0653583,-0.017126 -0.0760394,-0.0502205l0.0693858 -0.0223976z"/>
   </g>
  </g>
 </g>
</svg>
